<svg xmlns="http://www.w3.org/2000/svg" viewBox="0 0 24 24" fill="none">
  <path d="M18.7 13.53c-.03-3.02 2.48-4.45 2.6-4.53-1.42-2.08-3.62-2.37-4.41-2.41-1.88-.19-3.67 1.09-4.62 1.09-.97 0-2.43-1.06-4-1.03-2.05.03-3.96 1.19-5.02 3.02-2.13 3.7-.54 9.17 1.53 12.17 1.01 1.45 2.22 3.07 3.79 3.01 1.53-.06 2.11-.99 3.96-.99 1.84 0 2.37.99 4.01.95 1.66-.03 2.72-1.47 3.74-2.94 1.18-1.72 1.67-3.39 1.7-3.48-.04-.01-3.27-1.26-3.28-4.85z" fill="currentColor"/>
  <path d="M14.95 4.24c.93-1.12 1.56-2.68 1.39-4.24-1.35.05-2.97.9-3.94 2.02-.87.99-1.63 2.58-1.43 4.1 1.5.12 3.05-.76 3.98-1.88z" fill="currentColor"/>
</svg>
