<svg xmlns="http://www.w3.org/2000/svg" viewBox="0 0 512 512" fill="none">
  <path d="M35.1 32.6C25.5 41.1 20 54.1 20 70.3v371.4c0 16.2 5.5 29.2 15.1 37.7l.3.3 1.8 1.3 214.9-214.9v-.4L35.5 31z" fill="#00a0ff"/>
  <path d="M353.4 349.8 251.9 248.2v-.4L353.4 146l115.7 66.9c33.3 19.3 33.3 51.1 0 70.4l-115.7 66.5z" fill="#ffcf00"/>
  <path d="m353.4 349.8-101.5-101.6-214.9 214.9c10.9 9.6 26.9 10.5 45 0l271.4-156.7z" fill="#00f076"/>
  <path d="m353.4 146-271.4-157c-18.1-10.4-34.1-9.6-45 0l214.9 214.9L353.4 146z" fill="#ff3a44"/>
</svg>
