<?xml version="1.0" encoding="UTF-8"?>
<svg width="500" height="500" viewBox="0 0 500 500" xmlns="http://www.w3.org/2000/svg">
  <!-- Background circle with gradient -->
  <defs>
    <linearGradient id="bgGradient" x1="0%" y1="0%" x2="100%" y2="100%">
      <stop offset="0%" stop-color="#1a73e8" />
      <stop offset="100%" stop-color="#0c4da2" />
    </linearGradient>
    <linearGradient id="waveGradient" x1="0%" y1="0%" x2="100%" y2="0%">
      <stop offset="0%" stop-color="#4caf50" />
      <stop offset="50%" stop-color="#2196f3" />
      <stop offset="100%" stop-color="#9c27b0" />
    </linearGradient>
    <filter id="glow" x="-20%" y="-20%" width="140%" height="140%">
      <feGaussianBlur stdDeviation="8" result="blur" />
      <feComposite in="SourceGraphic" in2="blur" operator="over" />
    </filter>
  </defs>
  
  <!-- Main circle -->
  <circle cx="250" cy="250" r="240" fill="url(#bgGradient)" />
  
  <!-- Compass rose design -->
  <g transform="translate(250, 250)">
    <!-- North-South-East-West lines -->
    <line x1="0" y1="-180" x2="0" y2="180" stroke="white" stroke-width="6" />
    <line x1="-180" y1="0" x2="180" y2="0" stroke="white" stroke-width="6" />
    
    <!-- Diagonal lines -->
    <line x1="-127" y1="-127" x2="127" y2="127" stroke="white" stroke-width="3" />
    <line x1="-127" y1="127" x2="127" y2="-127" stroke="white" stroke-width="3" />
    
    <!-- Cardinal points -->
    <text x="0" y="-200" text-anchor="middle" fill="white" font-family="Arial" font-weight="bold" font-size="24">N</text>
    <text x="200" y="8" text-anchor="middle" fill="white" font-family="Arial" font-weight="bold" font-size="24">E</text>
    <text x="0" y="208" text-anchor="middle" fill="white" font-family="Arial" font-weight="bold" font-size="24">S</text>
    <text x="-200" y="8" text-anchor="middle" fill="white" font-family="Arial" font-weight="bold" font-size="24">W</text>
  </g>
  
  <!-- Stylized ship/boat silhouette -->
  <path d="M250,320 L180,320 C180,320 200,280 250,280 C300,280 320,320 320,320 L250,320 Z" fill="#ffffff" />
  
  <!-- Radar/sonar waves -->
  <g filter="url(#glow)">
    <path d="M250,250 m-60,0 a60,60 0 1,0 120,0 a60,60 0 1,0 -120,0" fill="none" stroke="url(#waveGradient)" stroke-width="3" stroke-dasharray="15,10" />
    <path d="M250,250 m-100,0 a100,100 0 1,0 200,0 a100,100 0 1,0 -200,0" fill="none" stroke="url(#waveGradient)" stroke-width="3" stroke-dasharray="15,10" />
    <path d="M250,250 m-140,0 a140,140 0 1,0 280,0 a140,140 0 1,0 -280,0" fill="none" stroke="url(#waveGradient)" stroke-width="3" stroke-dasharray="15,10" />
  </g>
  
  <!-- Central AI/tech element -->
  <circle cx="250" cy="250" r="40" fill="#ffffff" opacity="0.9" />
  <g transform="translate(250, 250)">
    <!-- Stylized AI/circuit pattern -->
    <line x1="-20" y1="-20" x2="20" y2="20" stroke="#0c4da2" stroke-width="4" />
    <line x1="-20" y1="20" x2="20" y2="-20" stroke="#0c4da2" stroke-width="4" />
    <circle cx="-20" cy="-20" r="5" fill="#0c4da2" />
    <circle cx="20" cy="20" r="5" fill="#0c4da2" />
    <circle cx="-20" cy="20" r="5" fill="#0c4da2" />
    <circle cx="20" cy="-20" r="5" fill="#0c4da2" />
    <circle cx="0" cy="0" r="10" fill="#0c4da2" />
  </g>
</svg>
