<?xml version="1.0" encoding="UTF-8"?>
<svg width="500" height="500" viewBox="0 0 500 500" xmlns="http://www.w3.org/2000/svg">
  <defs>
    <!-- Main gradient for the logo -->
    <linearGradient id="mainGradient" x1="0%" y1="0%" x2="100%" y2="100%">
      <stop offset="0%" stop-color="#00bcd4" />
      <stop offset="100%" stop-color="#3f51b5" />
    </linearGradient>
    
    <!-- Wave animation gradient -->
    <linearGradient id="waveGradient" x1="0%" y1="0%" x2="100%" y2="0%">
      <stop offset="0%" stop-color="#00bcd4" stop-opacity="0.8" />
      <stop offset="50%" stop-color="#2196f3" stop-opacity="0.6" />
      <stop offset="100%" stop-color="#3f51b5" stop-opacity="0.8" />
    </linearGradient>
    
    <!-- Glow effect -->
    <filter id="glow" x="-20%" y="-20%" width="140%" height="140%">
      <feGaussianBlur stdDeviation="5" result="blur" />
      <feComposite in="SourceGraphic" in2="blur" operator="over" />
    </filter>
    
    <!-- Clip path for the main shape -->
    <clipPath id="hexClip">
      <path d="M250,100 L370,175 L370,325 L250,400 L130,325 L130,175 Z" />
    </clipPath>
  </defs>
  
  <!-- Background hexagon -->
  <path d="M250,100 L370,175 L370,325 L250,400 L130,325 L130,175 Z" fill="url(#mainGradient)" />
  
  <!-- Water waves animation effect -->
  <g clip-path="url(#hexClip)">
    <path d="M100,280 C150,260 200,290 250,270 C300,250 350,280 400,260 L400,400 L100,400 Z" fill="url(#waveGradient)" opacity="0.7">
      <animate attributeName="d" 
               values="M100,280 C150,260 200,290 250,270 C300,250 350,280 400,260 L400,400 L100,400 Z;
                      M100,280 C150,300 200,270 250,290 C300,310 350,280 400,300 L400,400 L100,400 Z;
                      M100,280 C150,260 200,290 250,270 C300,250 350,280 400,260 L400,400 L100,400 Z" 
               dur="8s" 
               repeatCount="indefinite" />
    </path>
    <path d="M100,320 C150,300 200,330 250,310 C300,290 350,320 400,300 L400,400 L100,400 Z" fill="url(#waveGradient)" opacity="0.5">
      <animate attributeName="d" 
               values="M100,320 C150,300 200,330 250,310 C300,290 350,320 400,300 L400,400 L100,400 Z;
                      M100,320 C150,340 200,310 250,330 C300,350 350,320 400,340 L400,400 L100,400 Z;
                      M100,320 C150,300 200,330 250,310 C300,290 350,320 400,300 L400,400 L100,400 Z" 
               dur="6s" 
               repeatCount="indefinite" />
    </path>
  </g>
  
  <!-- Compass needle -->
  <g transform="translate(250, 200)" filter="url(#glow)">
    <path d="M0,-60 L15,0 L0,10 L-15,0 Z" fill="#ffffff" />
    <path d="M0,10 L15,0 L0,60 L-15,0 Z" fill="#ff5252" />
    <circle cx="0" cy="0" r="8" fill="#ffffff" stroke="#3f51b5" stroke-width="2" />
  </g>
  
  <!-- Satellite/GPS orbits -->
  <g transform="translate(250, 200)" opacity="0.8" filter="url(#glow)">
    <ellipse cx="0" cy="0" rx="90" ry="30" fill="none" stroke="#ffffff" stroke-width="1.5" stroke-dasharray="5,5" transform="rotate(30)" />
    <ellipse cx="0" cy="0" rx="80" ry="40" fill="none" stroke="#ffffff" stroke-width="1.5" stroke-dasharray="5,5" transform="rotate(-20)" />
    
    <!-- Satellite dots -->
    <circle cx="78" cy="-15" r="3" fill="#ffffff">
      <animate attributeName="cx" values="78;-78;78" dur="12s" repeatCount="indefinite" />
      <animate attributeName="cy" values="-15;15;-15" dur="12s" repeatCount="indefinite" />
    </circle>
    <circle cx="-40" cy="35" r="3" fill="#ffffff">
      <animate attributeName="cx" values="-40;40;-40" dur="8s" repeatCount="indefinite" />
      <animate attributeName="cy" values="35;-35;35" dur="8s" repeatCount="indefinite" />
    </circle>
  </g>
  
  <!-- AI/Tech elements -->
  <g transform="translate(250, 250)">
    <!-- Circuit board pattern -->
    <path d="M-40,40 L-20,40 L-20,20 L0,20 L0,0 L20,0 L20,-20 L40,-20" fill="none" stroke="#ffffff" stroke-width="2" />
    <path d="M40,-40 L20,-40 L20,-20 L0,-20 L0,0 L-20,0 L-20,20 L-40,20" fill="none" stroke="#ffffff" stroke-width="2" />
    
    <!-- Connection nodes -->
    <circle cx="-40" cy="40" r="4" fill="#ffffff" />
    <circle cx="-20" cy="40" r="4" fill="#ffffff" />
    <circle cx="-20" cy="20" r="4" fill="#ffffff" />
    <circle cx="0" cy="20" r="4" fill="#ffffff" />
    <circle cx="0" cy="0" r="4" fill="#ffffff" />
    <circle cx="20" cy="0" r="4" fill="#ffffff" />
    <circle cx="20" cy="-20" r="4" fill="#ffffff" />
    <circle cx="40" cy="-20" r="4" fill="#ffffff" />
    <circle cx="40" cy="-40" r="4" fill="#ffffff" />
    <circle cx="20" cy="-40" r="4" fill="#ffffff" />
    <circle cx="20" cy="-20" r="4" fill="#ffffff" />
    <circle cx="0" cy="-20" r="4" fill="#ffffff" />
    <circle cx="-20" cy="0" r="4" fill="#ffffff" />
    <circle cx="-20" cy="20" r="4" fill="#ffffff" />
    <circle cx="-40" cy="20" r="4" fill="#ffffff" />
  </g>
  
  <!-- Ship silhouette -->
  <path d="M250,330 C200,330 180,310 170,300 C160,310 150,320 130,320 L130,340 L370,340 L370,320 C350,320 340,310 330,300 C320,310 300,330 250,330 Z" fill="#ffffff" opacity="0.9" />
</svg>
