<?xml version="1.0" encoding="UTF-8"?>
<svg width="500" height="500" xmlns="http://www.w3.org/2000/svg" clip-rule="evenodd" xml:space="preserve" version="1.1">
 <g>
  <title>Compendium Navigation Logo - Refined</title>
  <g transform="scale(3.8)" id="Layer-1">
   <path fill-rule="nonzero" fill="rgb(21,0,112)" d="m58.39999,129.10001l-4,-0.40002l-4.29999,-1l-4.29999,-1.09998l-6.90002,-2.60001l-4.5,-2.39999l-4.59999,-2.40002l-4,-3l-3.89999,-3l-3.5,-3.69998l-3.60001,-3.70001l-2.3,-3.29999l-2.39999,-3.30002l-4,-7.39999l-1.5,-4l-1.60001,-4l-1.09999,-5.19998l-1.2,-5.30002l-0.70001,-10l0.60001,-4.89999l0.60001,-5l1,-4l1,-3.89999l1.59999,-4.70001l3.90001,-8.29999l2.59999,-3.80002l2.60001,-3.89999l8.5,-8.89999l4.3,-3.10001l4.2,-3.19998l9.99998,-5l4.10001,-1.30002l4.20001,-1.29999l3.79999,-0.70001l3.89999,-0.69998l5.70001,-0.30002l5.79999,-0.29999l5.40002,0.79999l5.39999,0.80002l4.29999,1.29999l4.30002,1.29999l4.29999,2l4.29999,2l4.90002,3.30002l4.89999,3.19998l8.19998,8.30002l6.40002,8.79999l1.79999,3.80002l1.89999,3.69998l3.10001,9l1.79999,9l-0.09998,16l-2.10001,9l-1.30002,3.89999l-1.29999,3.90002l-1.60001,3.09998l-1.5,3.10001l-2.60001,4l-2.59998,4l-8.80002,9.30002l-3.69998,2.79999l-3.70001,2.79999l-9.20001,4.80002l-3.19998,1.29999l-3.30002,1.20001l-4.19998,1.10001l-4.20001,1l-5,0.5l-5.10001,0.39999l-3.5,0l-4,-0.39999zm18,-5.20001l4,-0.79999l3.20001,-1.10001l3.29999,-1.10001l3.60001,-1.60001l3.60001,-1.69998l2.89999,-1.80002l2.89999,-1.89999l8,-6.70001l6,-7.09998l2.60001,-4.20001l2.5,-4.20001l1.80002,-4.69998l1.79999,-4.70001l1.20001,-4.5l1.09998,-4.39999l0,-8.60001l0,-8.5l-1.19998,-4.69998l-1.20001,-4.80002l-1.39999,-3.60001l-1.5,-3.69998l-1.39999,-2.80002l-1.39999,-2.89999l-2.90002,-4l-2.79999,-4l-3.39999,-3.39999l-3.30002,-3.39999l-4.29999,-3l-4.20001,-3l-3.79999,-1.89999l-3.70001,-1.90002l-3.79999,-1.29999l-3.70001,-1.29999l-4,-0.90002l-4,-0.89999l-16.5,0.10001l-5.29999,1.29999l-5.29999,1.40002l-3.20001,1.29999l-3.20001,1.29999l-2.39999,1.10001l-2.39999,1.30002l-3.5,2.5l-3.60001,2.39999l-6.39999,5.69998l-2.60001,3.30002l-2.59999,3.29999l-1.8,2.80002l-1.8,2.79999l-1.3,2.5l-1.29999,2.5l-1.70001,5.20001l-1.79999,5.19998l-0.8,5.10001l-0.8,5.10001l0.10001,7.29999l0.7,5l0.8,4.89999l1,3.40002l1,3.5l1.5,3.59998l1.5,3.60001l2,3.20001l2,3.29999l2,2.60001l2,2.60001l2.59999,2.69998l2.60001,2.40002l3.5,3l3.5,2.79999l3.09999,1.79999l3.10001,1.80002l6.79999,3l3.5,1l3.5,1l3.20001,0.60001l3.29999,0.5l3.5,0.39999l5.5,-0.20001l5.5,-0.19998l4,-0.70001zm-17.5,-20.10001l-1,-0.29999l-3,-0.70001l-3,-0.79999l-3,-1.5l-3,-1.5l-2,-1.60001l-2,-1.5l-1.69998,-1.5l-1.70001,-1.60001l-1.79999,-2.5l-1.89999,-2.5l-1.40001,-2.69998l-1.40001,-2.80002l-1,-3l-0.89999,-3l-0.3,-4.89999l-0.3,-5.10001l1.70001,-8l4.39999,-9.10001l4.10001,-4.09998l4,-4.10001l0.89999,0.79999l0.39999,2l0.60001,1.89999l-2.79999,3.10001l-2.90002,3.10001l-1.39999,2.60001l-1.39999,2.60001l0.60001,0.69998l5,-2.10001l5.10001,-2.09998l0.69998,0.39999l0.60001,0.29999l1.29999,2.5l1.30002,2.5l0.29999,20l0.30002,0.89999l0.39999,0.80002l1.10001,0.29999l1.09998,0.39999l7.5,0.20001l7.5,0.20001l3,-0.40002l3,-0.39999l0.70001,-3.69998l0.60001,-3.80002l-0.30002,-6.79999l-0.19998,-6.80002l1.5,-3.09998l1.5,-3l2.19998,0l9.20001,3.79999l0.5,-0.5l-3.10001,-5.60001l-2.69998,-2.79999l-2.80002,-2.80002l0.39999,-2.09998l0.30002,-2.10001l1.60001,-0.60001l3.89999,4.10001l3.89999,4l1.10001,2.10001l1.19998,2.19998l2.30002,5.5l0.69998,3.39999l0.80002,3.40002l0,6.5l-0.80002,3.89999l-0.79999,3.79999l-1.70001,3.5l-1.59998,3.5l-2.30002,3.10001l-2.29999,3.10001l-6.80002,5.5l-3,1.5l-3,1.5l-4.19998,1l-4.20001,1.10001l-8.60001,-0.10001l-1,-0.20001zm9,-6l1.5,-1.10001l1.40002,-1.89999l1.29999,-2l1.29999,-2.79999l1.20001,-2.89999l-0.20001,-0.10001l-10,0l-10,-0.10001l0.30002,1.89999l1.5,3l1.5,3l1.79999,1.89999l1.89999,1.90002l1.5,0.39999l1.5,0.39999l2,-0.39999l1.5,-1.20001zm-15.29999,-1.60001l0,-0.39999l-1.20001,-2.5l-1.19998,-2.5l-0.89999,-2.79999l-0.80002,-2.89999l-1.10001,-0.10001l-4.29999,-1.60001l-4.20001,-1.70001l-0.89999,-0.39999l-1,-0.39999l0.80002,2.39999l1.59998,2.5l1.60001,2.5l2.70001,2.60001l2.69998,2.60001l2.70001,1.5l2.79999,1.60001l0.70001,0l0,-0.40002zm26.89999,-1l2.39999,-1.29999l7.20001,-7.20001l1.29999,-2.59998l1.30002,-2.60001l-0.5,-0.5l-2.70001,1.29999l-2.69998,1.20001l-2.80002,0.89999l-2.69998,0.89999l-1.20001,3.30002l-1.10001,3.19998l-1,1.89999l-0.89999,1.80002l0,1.10001l0.89999,0l2.5,-1.40002zm-32.60001,-25.59998l0,-10l-1.39999,0l-3.19998,1.5l-3.30002,1.59998l-2.19998,2.20001l-2.20001,2.20001l0,4.5l2.10001,2.19998l2,2.20001l6.19998,3l1.5,0.5l0.5,0.10001l0,-10zm39,8.5l3.20001,-1.40002l5,-5.09998l0,-3.80002l-0.89999,-1.39999l-0.89999,-1.29999l-1.70001,-1.30002l-1.70001,-1.29999l-3,-1.5l-3,-1.39999l-1,0l0,20l0.80002,0l3.19998,-1.5zm-22.59998,-8.60001l-0.5,-0.70001l-2.80002,-5.10001l-2.79999,-5.19998l-2.70001,-5.80002l-2.69998,-5.89999l-1.10001,-3.5l-1.10001,-3.5l0.29999,-2.39999l0.40002,-2.39999l0.89999,-2.20001l1,-2.19998l1.79999,-1.80002l1.80002,-1.79999l2.69998,-1.30002l2.80002,-1.19998l6.19998,0l2.39999,1l2.5,1.10001l3.90002,3.69998l1.19998,2.5l1.10001,2.5l0,5.80002l-1.29999,4.09998l-1.40002,4.10001l-4.89999,9.70001l-4.89999,9.69998l-0.5,0.70001l-0.60001,0.70001l-1.19998,0l-0.5,-0.60001zm6.59998,-20.60001l2.10001,-1.29999l1.30002,-1.90002l1.39999,-2l0.39999,-1.69998l0.5,-1.70001l0,-3l-1,-2.19998l-1,-2.30002l-1.10001,-1.10001l-1.10001,-1.19998l-3.69998,-1.89999l-4.10001,-0.60001l-2.29999,0.60001l-2.40002,0.69998l-2.29999,2.30002l-2.39999,2.29999l-0.5,2.89999l-0.70001,2.80002l0.39999,1.59998l0.40002,1.60001l0.69998,1.5l0.80002,1.5l1,1.20001l1.09998,1.19998l1.5,0.80002l1.5,0.69998l1.20001,0.40002l1.29999,0.5l4.90002,-0.5l2.09998,-1.20001z" id="path1"/>
  </g>
  
  <!-- Cardinal direction markers -->
  <g transform="translate(250, 250)" opacity="0.8">
    <line x1="0" y1="-200" x2="0" y2="-170" stroke="#ffffff" stroke-width="3" />
    <line x1="200" y1="0" x2="170" y2="0" stroke="#ffffff" stroke-width="3" />
    <line x1="0" y1="200" x2="0" y2="170" stroke="#ffffff" stroke-width="3" />
    <line x1="-200" y1="0" x2="-170" y2="0" stroke="#ffffff" stroke-width="3" />
    
    <!-- Cardinal letters -->
    <text x="0" y="-210" text-anchor="middle" fill="#ffffff" font-family="Arial" font-weight="bold" font-size="20">N</text>
    <text x="210" y="7" text-anchor="middle" fill="#ffffff" font-family="Arial" font-weight="bold" font-size="20">E</text>
    <text x="0" y="225" text-anchor="middle" fill="#ffffff" font-family="Arial" font-weight="bold" font-size="20">S</text>
    <text x="-210" y="7" text-anchor="middle" fill="#ffffff" font-family="Arial" font-weight="bold" font-size="20">W</text>
  </g>
  
  <!-- Subtle tech elements -->
  <g transform="translate(250, 250)" opacity="0.15">
    <circle cx="0" cy="0" r="220" fill="none" stroke="#ffffff" stroke-width="1" stroke-dasharray="10,10" />
    <circle cx="0" cy="0" r="200" fill="none" stroke="#ffffff" stroke-width="1" stroke-dasharray="5,5" />
  </g>
 </g>
</svg>
